{
  "accessors": [
    {
      "bufferView": 2,
      "componentType": 5126,
      "count": 1360,
      "max": [
        0.87540280818939209,
        0.35310900211334229,
        1.7397040128707886
      ],
      "min": [
        -0.87540280818939209,
        0.030735250562429428,
        -0.0053707878105342388
      ],
      "type": "VEC3"
    },
    {
      "bufferView": 2,
      "byteOffset": 16320,
      "componentType": 5126,
      "count": 1360,
      "max": [
        0.99745279550552368,
        0.99925941228866577,
        0.99727910757064819
      ],
      "min": [
        -0.99745279550552368,
        -0.99144589900970459,
        -0.99969542026519775
      ],
      "type": "VEC3"
    },
    {
      "bufferView": 3,
      "componentType": 5126,
      "count": 1360,
      "max": [
        0.999744713306427,
        0.99937427043914795,
        0.97131723165512085,
        1
      ],
      "min": [
        -0.999744713306427,
        -0.99568486213684082,
        -0.99067944288253784,
        -1
      ],
      "type": "VEC4"
    },
    {
      "bufferView": 1,
      "componentType": 5126,
      "count": 1360,
      "max": [
        0.99600881338119507,
        0.99465262889862061
      ],
      "min": [
        -6.289321063945863e-09,
        0.0031414779368788004
      ],
      "type": "VEC2"
    },
    {
      "bufferView": 0,
      "componentType": 5125,
      "count": 2076,
      "max": [
        1359
      ],
      "min": [
        0
      ],
      "type": "SCALAR"
    }
  ],
  "asset": {
    "extras": {
      "author": "MGD Films (https://sketchfab.com/magadan)",
      "license": "CC-BY-4.0 (http://creativecommons.org/licenses/by/4.0/)",
      "source": "https://sketchfab.com/3d-models/3d-character-maze-low-poly-rigged-871c0a89ce654f5b852aae0f88181b58",
      "title": "3D Character - Maze Low Poly (Rigged)"
    },
    "generator": "Sketchfab-6.22.0",
    "version": "2.0"
  },
  "bufferViews": [
    {
      "buffer": 0,
      "byteLength": 8304,
      "byteOffset": 0,
      "name": "floatBufferViews",
      "target": 34963
    },
    {
      "buffer": 0,
      "byteLength": 10880,
      "byteOffset": 8304,
      "byteStride": 8,
      "name": "floatBufferViews",
      "target": 34962
    },
    {
      "buffer": 0,
      "byteLength": 32640,
      "byteOffset": 19184,
      "byteStride": 12,
      "name": "floatBufferViews",
      "target": 34962
    },
    {
      "buffer": 0,
      "byteLength": 21760,
      "byteOffset": 51824,
      "byteStride": 16,
      "name": "floatBufferViews",
      "target": 34962
    }
  ],
  "buffers": [
    {
      "byteLength": 73584,
      "uri": "scene.bin"
    }
  ],
  "materials": [
    {
      "doubleSided": true,
      "emissiveFactor": [
        0,
        0,
        0
      ],
      "name": "MazeLowMan",
      "pbrMetallicRoughness": {
        "baseColorFactor": [
          0.88343654901193713,
          0.15606532640242343,
          0.15606532640242343,
          1
        ],
        "metallicFactor": 0,
        "roughnessFactor": 0.20000000000000001
      }
    }
  ],
  "meshes": [
    {
      "primitives": [
        {
          "attributes": {
            "NORMAL": 1,
            "POSITION": 0,
            "TANGENT": 2,
            "TEXCOORD_0": 3
          },
          "indices": 4,
          "material": 0,
          "mode": 4
        }
      ]
    }
  ],
  "nodes": [
    {
      "children": [
        1
      ],
      "name": "RootNode (gltf orientation matrix)",
      "rotation": [
        -0.70710678118654746,
        -0,
        -0,
        0.70710678118654757
      ]
    },
    {
      "children": [
        2
      ],
      "name": "RootNode (model correction matrix)"
    },
    {
      "children": [
        3
      ],
      "name": "Runner.unity_1.obj.cleaner.gles"
    },
    {
      "mesh": 0,
      "name": ""
    }
  ],
  "scene": 0,
  "scenes": [
    {
      "name": "OSG_Scene",
      "nodes": [
        0
      ]
    }
  ]
}

