{
  "accessors": [
    {
      "bufferView": 2,
      "componentType": 5126,
      "count": 65533,
      "max": [
        1380.1759033203125,
        4198.017578125,
        2583.201171875
      ],
      "min": [
        -1215.3702392578125,
        -4903.4150390625,
        -12.74945068359375
      ],
      "type": "VEC3"
    },
    {
      "bufferView": 2,
      "byteOffset": 786396,
      "componentType": 5126,
      "count": 65533,
      "max": [
        1,
        1,
        1
      ],
      "min": [
        -1,
        -1,
        -1
      ],
      "type": "VEC3"
    },
    {
      "bufferView": 3,
      "componentType": 5126,
      "count": 65533,
      "max": [
        1,
        1,
        1,
        1
      ],
      "min": [
        -1,
        -1,
        -0.99923324584960938,
        1
      ],
      "type": "VEC4"
    },
    {
      "bufferView": 1,
      "componentType": 5126,
      "count": 65533,
      "max": [
        0.99484843015670776,
        0.99483132362365723
      ],
      "min": [
        0.004999999888241291,
        0.004999999888241291
      ],
      "type": "VEC2"
    },
    {
      "bufferView": 0,
      "componentType": 5125,
      "count": 68550,
      "max": [
        65532
      ],
      "min": [
        0
      ],
      "type": "SCALAR"
    },
    {
      "bufferView": 2,
      "byteOffset": 1572792,
      "componentType": 5126,
      "count": 65533,
      "max": [
        964.375732421875,
        2183.823974609375,
        933.858642578125
      ],
      "min": [
        -1118.0745849609375,
        -3218.33056640625,
        -12.74932861328125
      ],
      "type": "VEC3"
    },
    {
      "bufferView": 2,
      "byteOffset": 2359188,
      "componentType": 5126,
      "count": 65533,
      "max": [
        1,
        0.99997925758361816,
        0.99995797872543335
      ],
      "min": [
        -0.9991036057472229,
        -0.99992340803146362,
        -0.99999713897705078
      ],
      "type": "VEC3"
    },
    {
      "bufferView": 3,
      "byteOffset": 1048528,
      "componentType": 5126,
      "count": 65533,
      "max": [
        1,
        0.9999813437461853,
        1,
        1
      ],
      "min": [
        -1,
        -1,
        -0.99923473596572876,
        1
      ],
      "type": "VEC4"
    },
    {
      "bufferView": 1,
      "byteOffset": 524264,
      "componentType": 5126,
      "count": 65533,
      "max": [
        0.9949420690536499,
        0.99371087551116943
      ],
      "min": [
        0.004999999888241291,
        0.004999999888241291
      ],
      "type": "VEC2"
    },
    {
      "bufferView": 0,
      "byteOffset": 274200,
      "componentType": 5125,
      "count": 65667,
      "max": [
        65532
      ],
      "min": [
        0
      ],
      "type": "SCALAR"
    },
    {
      "bufferView": 2,
      "byteOffset": 3145584,
      "componentType": 5126,
      "count": 65532,
      "max": [
        1124.127197265625,
        2183.82373046875,
        754.8736572265625
      ],
      "min": [
        -1118.3533935546875,
        1592.1385498046875,
        163.927490234375
      ],
      "type": "VEC3"
    },
    {
      "bufferView": 2,
      "byteOffset": 3931968,
      "componentType": 5126,
      "count": 65532,
      "max": [
        1,
        0.99997895956039429,
        0.99995797872543335
      ],
      "min": [
        -1,
        -0.99992364645004272,
        -0.99999713897705078
      ],
      "type": "VEC3"
    },
    {
      "bufferView": 3,
      "byteOffset": 2097056,
      "componentType": 5126,
      "count": 65532,
      "max": [
        1,
        0.99999338388442993,
        1,
        1
      ],
      "min": [
        -1,
        -1,
        -0.99923783540725708,
        1
      ],
      "type": "VEC4"
    },
    {
      "bufferView": 1,
      "byteOffset": 1048528,
      "componentType": 5126,
      "count": 65532,
      "max": [
        0.99486947059631348,
        0.99494040012359619
      ],
      "min": [
        0.004999999888241291,
        0.004999999888241291
      ],
      "type": "VEC2"
    },
    {
      "bufferView": 0,
      "byteOffset": 536868,
      "componentType": 5125,
      "count": 65664,
      "max": [
        65531
      ],
      "min": [
        0
      ],
      "type": "SCALAR"
    },
    {
      "bufferView": 2,
      "byteOffset": 4718352,
      "componentType": 5126,
      "count": 65534,
      "max": [
        1289.437744140625,
        2183.823974609375,
        754.8739013671875
      ],
      "min": [
        990.33349609375,
        1592.138671875,
        163.927734375
      ],
      "type": "VEC3"
    },
    {
      "bufferView": 2,
      "byteOffset": 5504760,
      "componentType": 5126,
      "count": 65534,
      "max": [
        0.99692130088806152,
        0.99997925758361816,
        0.99989348649978638
      ],
      "min": [
        -1,
        -0.99987328052520752,
        -0.99999719858169556
      ],
      "type": "VEC3"
    },
    {
      "bufferView": 3,
      "byteOffset": 3145568,
      "componentType": 5126,
      "count": 65534,
      "max": [
        1,
        1,
        1,
        1
      ],
      "min": [
        -1,
        -0.99999541044235229,
        -0.99939686059951782,
        1
      ],
      "type": "VEC4"
    },
    {
      "bufferView": 1,
      "byteOffset": 1572784,
      "componentType": 5126,
      "count": 65534,
      "max": [
        0.99469554424285889,
        0.99458247423171997
      ],
      "min": [
        0.004999999888241291,
        0.004999999888241291
      ],
      "type": "VEC2"
    },
    {
      "bufferView": 0,
      "byteOffset": 799524,
      "componentType": 5125,
      "count": 65772,
      "max": [
        65533
      ],
      "min": [
        0
      ],
      "type": "SCALAR"
    },
    {
      "bufferView": 2,
      "byteOffset": 6291168,
      "componentType": 5126,
      "count": 65534,
      "max": [
        1327.086181640625,
        2454.00927734375,
        1026.1744384765625
      ],
      "min": [
        -1164.1414794921875,
        -3218.3310546875,
        -12.74945068359375
      ],
      "type": "VEC3"
    },
    {
      "bufferView": 2,
      "byteOffset": 7077576,
      "componentType": 5126,
      "count": 65534,
      "max": [
        1,
        1,
        0.99995791912078857
      ],
      "min": [
        -1,
        -1,
        -0.99995779991149902
      ],
      "type": "VEC3"
    },
    {
      "bufferView": 3,
      "byteOffset": 4194112,
      "componentType": 5126,
      "count": 65534,
      "max": [
        1,
        0.99999833106994629,
        1,
        1
      ],
      "min": [
        -1,
        -1,
        -0.9993976354598999,
        1
      ],
      "type": "VEC4"
    },
    {
      "bufferView": 1,
      "byteOffset": 2097056,
      "componentType": 5126,
      "count": 65534,
      "max": [
        0.99498862028121948,
        0.99500000476837158
      ],
      "min": [
        0.004999999888241291,
        0.004999999888241291
      ],
      "type": "VEC2"
    },
    {
      "bufferView": 0,
      "byteOffset": 1062612,
      "componentType": 5125,
      "count": 65730,
      "max": [
        65533
      ],
      "min": [
        0
      ],
      "type": "SCALAR"
    },
    {
      "bufferView": 2,
      "byteOffset": 7863984,
      "componentType": 5126,
      "count": 65533,
      "max": [
        1326.4775390625,
        2362.595458984375,
        933.8585205078125
      ],
      "min": [
        668.018798828125,
        -3041.67236328125,
        -12.74945068359375
      ],
      "type": "VEC3"
    },
    {
      "bufferView": 2,
      "byteOffset": 8650380,
      "componentType": 5126,
      "count": 65533,
      "max": [
        0.99878895282745361,
        0.99997895956039429,
        0.99995791912078857
      ],
      "min": [
        -1,
        -0.99992316961288452,
        -0.99999713897705078
      ],
      "type": "VEC3"
    },
    {
      "bufferView": 3,
      "byteOffset": 5242656,
      "componentType": 5126,
      "count": 65533,
      "max": [
        1,
        1,
        1,
        1
      ],
      "min": [
        -1,
        -0.99999535083770752,
        -0.99928295612335205,
        1
      ],
      "type": "VEC4"
    },
    {
      "bufferView": 1,
      "byteOffset": 2621328,
      "componentType": 5126,
      "count": 65533,
      "max": [
        0.9949871301651001,
        0.9947236180305481
      ],
      "min": [
        0.004999999888241291,
        0.004999999888241291
      ],
      "type": "VEC2"
    },
    {
      "bufferView": 0,
      "byteOffset": 1325532,
      "componentType": 5125,
      "count": 65604,
      "max": [
        65532
      ],
      "min": [
        0
      ],
      "type": "SCALAR"
    },
    {
      "bufferView": 2,
      "byteOffset": 9436776,
      "componentType": 5126,
      "count": 65532,
      "max": [
        1280.642578125,
        2362.594970703125,
        933.8585205078125
      ],
      "min": [
        -805.3248291015625,
        1417.640380859375,
        -12.74945068359375
      ],
      "type": "VEC3"
    },
    {
      "bufferView": 2,
      "byteOffset": 10223160,
      "componentType": 5126,
      "count": 65532,
      "max": [
        0.99878877401351929,
        0.99969834089279175,
        0.99989348649978638
      ],
      "min": [
        -1,
        -0.99986177682876587,
        -0.99991238117218018
      ],
      "type": "VEC3"
    },
    {
      "bufferView": 3,
      "byteOffset": 6291184,
      "componentType": 5126,
      "count": 65532,
      "max": [
        1,
        1,
        1,
        1
      ],
      "min": [
        -1,
        -0.99999350309371948,
        -0.99939823150634766,
        1
      ],
      "type": "VEC4"
    },
    {
      "bufferView": 1,
      "byteOffset": 3145592,
      "componentType": 5126,
      "count": 65532,
      "max": [
        0.99442273378372192,
        0.99458152055740356
      ],
      "min": [
        0.004999999888241291,
        0.004999999888241291
      ],
      "type": "VEC2"
    },
    {
      "bufferView": 0,
      "byteOffset": 1587948,
      "componentType": 5125,
      "count": 65784,
      "max": [
        65531
      ],
      "min": [
        0
      ],
      "type": "SCALAR"
    },
    {
      "bufferView": 2,
      "byteOffset": 11009544,
      "componentType": 5126,
      "count": 65533,
      "max": [
        -506.22052001953125,
        2183.80419921875,
        754.873779296875
      ],
      "min": [
        -1115.1258544921875,
        -3041.67236328125,
        163.9276123046875
      ],
      "type": "VEC3"
    },
    {
      "bufferView": 2,
      "byteOffset": 11795940,
      "componentType": 5126,
      "count": 65533,
      "max": [
        1,
        0.99997830390930176,
        0.99995791912078857
      ],
      "min": [
        -1,
        -0.99992364645004272,
        -0.99999719858169556
      ],
      "type": "VEC3"
    },
    {
      "bufferView": 3,
      "byteOffset": 7339696,
      "componentType": 5126,
      "count": 65533,
      "max": [
        1,
        0.99999350309371948,
        1,
        1
      ],
      "min": [
        -1,
        -0.99999666213989258,
        -0.99926298856735229,
        1
      ],
      "type": "VEC4"
    },
    {
      "bufferView": 1,
      "byteOffset": 3669848,
      "componentType": 5126,
      "count": 65533,
      "max": [
        0.99499845504760742,
        0.99479132890701294
      ],
      "min": [
        0.004999999888241291,
        0.004999999888241291
      ],
      "type": "VEC2"
    },
    {
      "bufferView": 0,
      "byteOffset": 1851084,
      "componentType": 5125,
      "count": 65718,
      "max": [
        65532
      ],
      "min": [
        0
      ],
      "type": "SCALAR"
    },
    {
      "bufferView": 2,
      "byteOffset": 12582336,
      "componentType": 5126,
      "count": 25842,
      "max": [
        1187.7587890625,
        -2449.9873046875,
        2861.773681640625
      ],
      "min": [
        -1169.58642578125,
        -6158.97705078125,
        169.352294921875
      ],
      "type": "VEC3"
    },
    {
      "bufferView": 2,
      "byteOffset": 12892440,
      "componentType": 5126,
      "count": 25842,
      "max": [
        1,
        0.99997895956039429,
        0.99995797872543335
      ],
      "min": [
        -0.9361722469329834,
        -0.99992364645004272,
        -0.99999713897705078
      ],
      "type": "VEC3"
    },
    {
      "bufferView": 3,
      "byteOffset": 8388224,
      "componentType": 5126,
      "count": 25842,
      "max": [
        1,
        0.99998140335083008,
        0.99998414516448975,
        1
      ],
      "min": [
        -1,
        -1,
        -0.9992339015007019,
        1
      ],
      "type": "VEC4"
    },
    {
      "bufferView": 1,
      "byteOffset": 4194112,
      "componentType": 5126,
      "count": 25842,
      "max": [
        0.99496138095855713,
        0.99392038583755493
      ],
      "min": [
        0.0053266864269971848,
        0.010556266643106937
      ],
      "type": "VEC2"
    },
    {
      "bufferView": 0,
      "byteOffset": 2113956,
      "componentType": 5125,
      "count": 26541,
      "max": [
        25841
      ],
      "min": [
        0
      ],
      "type": "SCALAR"
    },
    {
      "bufferView": 2,
      "byteOffset": 13202544,
      "componentType": 5126,
      "count": 3206,
      "max": [
        1417.8001708984375,
        4374.45654296875,
        2999.306640625
      ],
      "min": [
        -1235.072265625,
        -4984.615234375,
        263.1881103515625
      ],
      "type": "VEC3"
    },
    {
      "bufferView": 2,
      "byteOffset": 13241016,
      "componentType": 5126,
      "count": 3206,
      "max": [
        0.99999946355819702,
        0.99999958276748657,
        1
      ],
      "min": [
        -0.99999946355819702,
        -1,
        -1
      ],
      "type": "VEC3"
    },
    {
      "bufferView": 3,
      "byteOffset": 8801696,
      "componentType": 5126,
      "count": 3206,
      "max": [
        1,
        1,
        1,
        1
      ],
      "min": [
        -1,
        -1,
        -0.99923306703567505,
        -1
      ],
      "type": "VEC4"
    },
    {
      "bufferView": 1,
      "byteOffset": 4400848,
      "componentType": 5126,
      "count": 3206,
      "max": [
        0.99500000476837158,
        0.99486643075942993
      ],
      "min": [
        0.004999999888241291,
        0.004999999888241291
      ],
      "type": "VEC2"
    },
    {
      "bufferView": 0,
      "byteOffset": 2220120,
      "componentType": 5125,
      "count": 7602,
      "max": [
        3205
      ],
      "min": [
        0
      ],
      "type": "SCALAR"
    }
  ],
  "asset": {
    "extras": {
      "author": "m4cgregor (https://sketchfab.com/m4cgregor)",
      "license": "CC-BY-4.0 (http://creativecommons.org/licenses/by/4.0/)",
      "source": "https://sketchfab.com/models/9237e918de35460baf2568e3e3467b5f",
      "title": "Bus"
    },
    "generator": "Sketchfab-3.18.7",
    "version": "2.0"
  },
  "bufferViews": [
    {
      "buffer": 0,
      "byteLength": 2250528,
      "byteOffset": 0,
      "name": "floatBufferViews",
      "target": 34963
    },
    {
      "buffer": 0,
      "byteLength": 4426496,
      "byteOffset": 2250528,
      "byteStride": 8,
      "name": "floatBufferViews",
      "target": 34962
    },
    {
      "buffer": 0,
      "byteLength": 13279488,
      "byteOffset": 6677024,
      "byteStride": 12,
      "name": "floatBufferViews",
      "target": 34962
    },
    {
      "buffer": 0,
      "byteLength": 8852992,
      "byteOffset": 19956512,
      "byteStride": 16,
      "name": "floatBufferViews",
      "target": 34962
    }
  ],
  "buffers": [
    {
      "byteLength": 28809504,
      "uri": "scene.bin"
    }
  ],
  "images": [
    {
      "uri": "textures/Object006_mtl_baseColor.jpeg"
    },
    {
      "uri": "textures/Object005_mtl_baseColor.jpeg"
    }
  ],
  "materials": [
    {
      "doubleSided": true,
      "emissiveFactor": [
        0,
        0,
        0
      ],
      "name": "Object005_mtl",
      "pbrMetallicRoughness": {
        "baseColorFactor": [
          1,
          1,
          1,
          1
        ],
        "baseColorTexture": {
          "index": 1,
          "texCoord": 0
        },
        "metallicFactor": 0,
        "roughnessFactor": 0.59999999999999998
      }
    },
    {
      "doubleSided": true,
      "emissiveFactor": [
        0,
        0,
        0
      ],
      "name": "Object006_mtl",
      "pbrMetallicRoughness": {
        "baseColorFactor": [
          1,
          1,
          1,
          1
        ],
        "baseColorTexture": {
          "index": 0,
          "texCoord": 0
        },
        "metallicFactor": 0,
        "roughnessFactor": 0.59999999999999998
      }
    }
  ],
  "meshes": [
    {
      "name": "Object005_Object005_mtl_0",
      "primitives": [
        {
          "attributes": {
            "NORMAL": 1,
            "POSITION": 0,
            "TANGENT": 2,
            "TEXCOORD_0": 3
          },
          "indices": 4,
          "material": 0,
          "mode": 4
        }
      ]
    },
    {
      "name": "Object005_Object005_mtl_0",
      "primitives": [
        {
          "attributes": {
            "NORMAL": 6,
            "POSITION": 5,
            "TANGENT": 7,
            "TEXCOORD_0": 8
          },
          "indices": 9,
          "material": 0,
          "mode": 4
        }
      ]
    },
    {
      "name": "Object005_Object005_mtl_0",
      "primitives": [
        {
          "attributes": {
            "NORMAL": 11,
            "POSITION": 10,
            "TANGENT": 12,
            "TEXCOORD_0": 13
          },
          "indices": 14,
          "material": 0,
          "mode": 4
        }
      ]
    },
    {
      "name": "Object005_Object005_mtl_0",
      "primitives": [
        {
          "attributes": {
            "NORMAL": 16,
            "POSITION": 15,
            "TANGENT": 17,
            "TEXCOORD_0": 18
          },
          "indices": 19,
          "material": 0,
          "mode": 4
        }
      ]
    },
    {
      "name": "Object005_Object005_mtl_0",
      "primitives": [
        {
          "attributes": {
            "NORMAL": 21,
            "POSITION": 20,
            "TANGENT": 22,
            "TEXCOORD_0": 23
          },
          "indices": 24,
          "material": 0,
          "mode": 4
        }
      ]
    },
    {
      "name": "Object005_Object005_mtl_0",
      "primitives": [
        {
          "attributes": {
            "NORMAL": 26,
            "POSITION": 25,
            "TANGENT": 27,
            "TEXCOORD_0": 28
          },
          "indices": 29,
          "material": 0,
          "mode": 4
        }
      ]
    },
    {
      "name": "Object005_Object005_mtl_0",
      "primitives": [
        {
          "attributes": {
            "NORMAL": 31,
            "POSITION": 30,
            "TANGENT": 32,
            "TEXCOORD_0": 33
          },
          "indices": 34,
          "material": 0,
          "mode": 4
        }
      ]
    },
    {
      "name": "Object005_Object005_mtl_0",
      "primitives": [
        {
          "attributes": {
            "NORMAL": 36,
            "POSITION": 35,
            "TANGENT": 37,
            "TEXCOORD_0": 38
          },
          "indices": 39,
          "material": 0,
          "mode": 4
        }
      ]
    },
    {
      "name": "Object005_Object005_mtl_0",
      "primitives": [
        {
          "attributes": {
            "NORMAL": 41,
            "POSITION": 40,
            "TANGENT": 42,
            "TEXCOORD_0": 43
          },
          "indices": 44,
          "material": 0,
          "mode": 4
        }
      ]
    },
    {
      "name": "Object006_Object006_mtl_0",
      "primitives": [
        {
          "attributes": {
            "NORMAL": 46,
            "POSITION": 45,
            "TANGENT": 47,
            "TEXCOORD_0": 48
          },
          "indices": 49,
          "material": 1,
          "mode": 4
        }
      ]
    }
  ],
  "nodes": [
    {
      "children": [
        1
      ],
      "name": "RootNode (gltf orientation matrix)",
      "rotation": [
        -0.70710678118654746,
        -0,
        -0,
        0.70710678118654757
      ]
    },
    {
      "children": [
        2
      ],
      "name": "RootNode (model correction matrix)"
    },
    {
      "children": [
        3
      ],
      "matrix": [
        1,
        0,
        0,
        0,
        0,
        0,
        1,
        0,
        0,
        -1,
        0,
        0,
        0,
        0,
        0,
        1
      ],
      "name": "Bus.fbx"
    },
    {
      "children": [
        4,
        15
      ],
      "name": "RootNode"
    },
    {
      "children": [
        5
      ],
      "matrix": [
        1,
        0,
        0,
        0,
        0,
        2.2204460492503131e-16,
        -1,
        0,
        0,
        1,
        2.2204460492503131e-16,
        0,
        91.36395263671875,
        -12.74945068359375,
        892.26025390625,
        1
      ],
      "name": "Object005"
    },
    {
      "children": [
        6,
        7,
        8,
        9,
        10,
        11,
        12,
        13,
        14
      ],
      "matrix": [
        1,
        0,
        -0,
        0,
        0,
        1,
        0,
        0,
        0,
        0,
        1,
        0,
        -91.36395263671875,
        892.26025390625,
        12.74945068359375,
        1
      ],
      "name": ""
    },
    {
      "mesh": 0,
      "name": "Object005_Object005_mtl_0"
    },
    {
      "mesh": 1,
      "name": "Object005_Object005_mtl_0"
    },
    {
      "mesh": 2,
      "name": "Object005_Object005_mtl_0"
    },
    {
      "mesh": 3,
      "name": "Object005_Object005_mtl_0"
    },
    {
      "mesh": 4,
      "name": "Object005_Object005_mtl_0"
    },
    {
      "mesh": 5,
      "name": "Object005_Object005_mtl_0"
    },
    {
      "mesh": 6,
      "name": "Object005_Object005_mtl_0"
    },
    {
      "mesh": 7,
      "name": "Object005_Object005_mtl_0"
    },
    {
      "mesh": 8,
      "name": "Object005_Object005_mtl_0"
    },
    {
      "children": [
        16
      ],
      "matrix": [
        1,
        0,
        0,
        0,
        0,
        2.2204460492503131e-16,
        -1,
        0,
        0,
        1,
        2.2204460492503131e-16,
        0,
        91.36395263671875,
        -12.74945068359375,
        892.26025390625,
        1
      ],
      "name": "Object006"
    },
    {
      "children": [
        17
      ],
      "matrix": [
        1,
        0,
        -0,
        0,
        0,
        1,
        0,
        0,
        0,
        0,
        1,
        0,
        -91.36395263671875,
        892.26025390625,
        12.74945068359375,
        1
      ],
      "name": ""
    },
    {
      "mesh": 9,
      "name": "Object006_Object006_mtl_0"
    }
  ],
  "samplers": [
    {
      "magFilter": 9729,
      "minFilter": 9987,
      "wrapS": 10497,
      "wrapT": 10497
    }
  ],
  "scene": 0,
  "scenes": [
    {
      "name": "OSG_Scene",
      "nodes": [
        0
      ]
    }
  ],
  "textures": [
    {
      "sampler": 0,
      "source": 0
    },
    {
      "sampler": 0,
      "source": 1
    }
  ]
}

