{
  "accessors": [
    {
      "bufferView": 2,
      "componentType": 5126,
      "count": 4926,
      "max": [
        0.5606030225753784,
        0.6816229820251465,
        0.6646389961242676
      ],
      "min": [
        -0.5606030225753784,
        -0.7764530181884766,
        -0.5703309774398804
      ],
      "type": "VEC3"
    },
    {
      "bufferView": 2,
      "byteOffset": 59112,
      "componentType": 5126,
      "count": 4926,
      "max": [
        0.9999799728393555,
        0.9991031289100647,
        0.9996756315231323
      ],
      "min": [
        -0.9999799728393555,
        -0.9957693815231323,
        -0.9995022416114807
      ],
      "type": "VEC3"
    },
    {
      "bufferView": 3,
      "componentType": 5126,
      "count": 4926,
      "max": [
        0.9991742372512817,
        0.8095260262489319,
        0.9999685883522034,
        1.0
      ],
      "min": [
        -0.9999769926071167,
        -0.999634325504303,
        -0.9964985251426697,
        -1.0
      ],
      "type": "VEC4"
    },
    {
      "bufferView": 1,
      "componentType": 5126,
      "count": 4926,
      "max": [
        0.9905120134353638,
        0.9719619750976563
      ],
      "min": [
        0.01700500026345253,
        0.013856000266969204
      ],
      "type": "VEC2"
    },
    {
      "bufferView": 0,
      "componentType": 5125,
      "count": 28992,
      "type": "SCALAR"
    }
  ],
  "asset": {
    "extras": {
      "author": "Colin.Greenall (https://sketchfab.com/Colin.Greenall)",
      "license": "CC-BY-4.0 (http://creativecommons.org/licenses/by/4.0/)",
      "source": "https://sketchfab.com/3d-models/head-d42e5aeb26934241aa398ada9fd1f38a",
      "title": "HEAD"
    },
    "generator": "Sketchfab-12.77.0",
    "version": "2.0"
  },
  "bufferViews": [
    {
      "buffer": 0,
      "byteLength": 115968,
      "name": "floatBufferViews",
      "target": 34963
    },
    {
      "buffer": 0,
      "byteLength": 39408,
      "byteOffset": 115968,
      "byteStride": 8,
      "name": "floatBufferViews",
      "target": 34962
    },
    {
      "buffer": 0,
      "byteLength": 118224,
      "byteOffset": 155376,
      "byteStride": 12,
      "name": "floatBufferViews",
      "target": 34962
    },
    {
      "buffer": 0,
      "byteLength": 78816,
      "byteOffset": 273600,
      "byteStride": 16,
      "name": "floatBufferViews",
      "target": 34962
    }
  ],
  "buffers": [
    {
      "byteLength": 352416,
      "uri": "scene.bin"
    }
  ],
  "images": [
    {
      "uri": "textures/HEADHEAD_11_baseColor.png"
    },
    {
      "uri": "textures/HEADHEAD_11_metallicRoughness.png"
    },
    {
      "uri": "textures/HEADHEAD_11_normal.png"
    }
  ],
  "materials": [
    {
      "doubleSided": true,
      "name": "HEADHEAD_11",
      "normalTexture": {
        "index": 2
      },
      "pbrMetallicRoughness": {
        "baseColorTexture": {
          "index": 0
        },
        "metallicFactor": 0.0,
        "metallicRoughnessTexture": {
          "index": 1
        }
      }
    }
  ],
  "meshes": [
    {
      "name": "HEAD:HEAD_9_HEAD:HEAD_11_0",
      "primitives": [
        {
          "attributes": {
            "NORMAL": 1,
            "POSITION": 0,
            "TANGENT": 2,
            "TEXCOORD_0": 3
          },
          "indices": 4,
          "material": 0,
          "mode": 4
        }
      ]
    }
  ],
  "nodes": [
    {
      "children": [
        1
      ],
      "matrix": [
        1.0,
        0.0,
        0.0,
        0.0,
        0.0,
        2.220446049250313e-16,
        -1.0,
        0.0,
        0.0,
        1.0,
        2.220446049250313e-16,
        0.0,
        0.0,
        0.0,
        0.0,
        1.0
      ],
      "name": "Sketchfab_model"
    },
    {
      "children": [
        2
      ],
      "matrix": [
        0.009999999776482582,
        0.0,
        0.0,
        0.0,
        0.0,
        0.0,
        0.009999999776482582,
        0.0,
        0.0,
        -0.009999999776482582,
        0.0,
        0.0,
        0.0,
        0.0,
        0.0,
        1.0
      ],
      "name": "7ff5a9b351a2481eb4fa0a582b11efec.fbx"
    },
    {
      "children": [
        3
      ],
      "name": "RootNode"
    },
    {
      "children": [
        4
      ],
      "name": "HEAD:HEAD_9"
    },
    {
      "mesh": 0,
      "name": "HEAD:HEAD_9_HEAD:HEAD_11_0"
    }
  ],
  "samplers": [
    {
      "magFilter": 9729,
      "minFilter": 9987,
      "wrapS": 10497,
      "wrapT": 10497
    }
  ],
  "scene": 0,
  "scenes": [
    {
      "name": "Sketchfab_Scene",
      "nodes": [
        0
      ]
    }
  ],
  "textures": [
    {
      "sampler": 0,
      "source": 0
    },
    {
      "sampler": 0,
      "source": 1
    },
    {
      "sampler": 0,
      "source": 2
    }
  ]
}
