{
  "accessors": [
    {
      "bufferView": 0,
      "componentType": 5125,
      "count": 703614,
      "type": "SCALAR"
    },
    {
      "bufferView": 1,
      "componentType": 5126,
      "count": 166370,
      "max": [
        1.0,
        0.305941492319107,
        0.904182493686676
      ],
      "min": [
        -0.999999940395355,
        -0.305941492319107,
        -0.904182493686676
      ],
      "type": "VEC3"
    },
    {
      "bufferView": 2,
      "componentType": 5126,
      "count": 166370,
      "type": "VEC3"
    },
    {
      "bufferView": 3,
      "componentType": 5126,
      "count": 166370,
      "type": "VEC2"
    }
  ],
  "asset": {
    "generator": "Substance Painter 2018.3.1",
    "version": "2.0"
  },
  "bufferViews": [
    {
      "buffer": 0,
      "byteLength": 2814456,
      "target": 34963
    },
    {
      "buffer": 0,
      "byteLength": 1996440,
      "byteOffset": 2814456,
      "target": 34962
    },
    {
      "buffer": 0,
      "byteLength": 1996440,
      "byteOffset": 4810896,
      "target": 34962
    },
    {
      "buffer": 0,
      "byteLength": 1330960,
      "byteOffset": 6807336,
      "target": 34962
    }
  ],
  "buffers": [
    {
      "byteLength": 8138296,
      "uri": "Unreal Engine 4.bin"
    }
  ],
  "images": [
    {
      "uri": "StingrayPBS1_baseColor.png"
    },
    {
      "uri": "StingrayPBS1_occlusionRoughnessMetallic.png"
    },
    {
      "uri": "StingrayPBS1_normal.png"
    }
  ],
  "materials": [
    {
      "alphaMode": "OPAQUE",
      "name": "StingrayPBS1",
      "normalTexture": {
        "index": 2
      },
      "occlusionTexture": {
        "index": 1
      },
      "pbrMetallicRoughness": {
        "baseColorTexture": {
          "index": 0
        },
        "metallicRoughnessTexture": {
          "index": 1
        }
      }
    }
  ],
  "meshes": [
    {
      "name": "Layer_1",
      "primitives": [
        {
          "attributes": {
            "NORMAL": 2,
            "POSITION": 1,
            "TEXCOORD_0": 3
          },
          "indices": 0,
          "material": 0,
          "mode": 4
        }
      ]
    }
  ],
  "nodes": [
    {
      "children": [
        1
      ],
      "name": "root",
      "scale": [
        356.142150878906,
        356.142150878906,
        356.142150878906
      ],
      "translation": [
        -0.015838623046875,
        -111.063369750977,
        92.7833251953125
      ]
    },
    {
      "children": [
        2
      ],
      "name": "Layer_1"
    },
    {
      "mesh": 0,
      "name": "Layer_1"
    }
  ],
  "samplers": [
    {
      "magFilter": 9729,
      "minFilter": 9985,
      "wrapS": 10497,
      "wrapT": 10497
    }
  ],
  "scene": 0,
  "scenes": [
    {
      "name": "Scene",
      "nodes": [
        0
      ]
    }
  ],
  "textures": [
    {
      "sampler": 0,
      "source": 0
    },
    {
      "sampler": 0,
      "source": 1
    },
    {
      "sampler": 0,
      "source": 2
    }
  ]
}