{
  "accessors": [
    {
      "name": "Group1_1_positions",
      "componentType": 5126,
      "count": 2828,
      "min": [
        -0.6936986446380615,
        -0.847099781036377,
        -1.1756839752197266
      ],
      "max": [
        0.6936986446380615,
        1.2811959981918335,
        0.40761271119117737
      ],
      "type": "VEC3",
      "bufferView": 0,
      "byteOffset": 0
    },
    {
      "name": "Group1_1_texcoords",
      "componentType": 5126,
      "count": 2828,
      "min": [
        0.0019499999471008778,
        0.3093099892139435
      ],
      "max": [
        0.9980400204658508,
        0.9980499744415283
      ],
      "type": "VEC2",
      "bufferView": 1,
      "byteOffset": 0
    },
    {
      "name": "Group1_1_0_indices",
      "componentType": 5123,
      "count": 4200,
      "min": [
        0
      ],
      "max": [
        2827
      ],
      "type": "SCALAR",
      "bufferView": 2,
      "byteOffset": 0
    }
  ],
  "asset": {
    "generator": "obj2gltf",
    "version": "2.0"
  },
  "buffers": [
    {
      "name": "INGAME_BASE",
      "byteLength": 64960,
      "uri": "data:application/octet-stream;base64,"
    }
  ],
  "bufferViews": [
    {
      "name": "bufferView_0",
      "buffer": 0,
      "byteLength": 33936,
      "byteOffset": 0,
      "byteStride": 12,
      "target": 34962
    },
    {
      "name": "bufferView_1",
      "buffer": 0,
      "byteLength": 22624,
      "byteOffset": 33936,
      "byteStride": 8,
      "target": 34962
    },
    {
      "name": "bufferView_2",
      "buffer": 0,
      "byteLength": 8400,
      "byteOffset": 56560,
      "target": 34963
    }
  ],
  "materials": [
    {
      "name": "defaultMat",
      "pbrMetallicRoughness": {
        "baseColorFactor": [
          0.5,
          0.5,
          0.5,
          1
        ],
        "metallicFactor": 0,
        "roughnessFactor": 1
      },
      "emissiveFactor": [
        0,
        0,
        0
      ],
      "alphaMode": "OPAQUE",
      "doubleSided": false
    }
  ],
  "meshes": [
    {
      "name": "Group1_1",
      "primitives": [
        {
          "attributes": {
            "POSITION": 0,
            "TEXCOORD_0": 1
          },
          "indices": 2,
          "material": 0,
          "mode": 4
        }
      ]
    }
  ],
  "nodes": [
    {
      "name": "Group1",
      "mesh": 0
    }
  ],
  "scene": 0,
  "scenes": [
    {
      "nodes": [
        0
      ]
    }
  ]
}
